<mxfile host="app.diagrams.net" modified="2023-04-15T23:17:01.204Z" agent="Mozilla/5.0 (Macintosh; Intel Mac OS X 10.15; rv:109.0) Gecko/20100101 Firefox/111.0" etag="DFHe2EzQRkKIS5LTIcl5" version="21.1.5" type="device">
  <diagram name="PÃ¡gina-1" id="ftUvGIxs3Q1ju05yiC8Z">
    <mxGraphModel dx="860" dy="724" grid="1" gridSize="10" guides="1" tooltips="1" connect="1" arrows="1" fold="1" page="1" pageScale="1" pageWidth="827" pageHeight="1169" math="0" shadow="0">
      <root>
        <mxCell id="0" />
        <mxCell id="1" parent="0" />
        <mxCell id="0mGGz-Txc2dblMr2IItd-21" value="" style="rounded=0;whiteSpace=wrap;html=1;" parent="1" vertex="1">
          <mxGeometry x="150" y="210" width="370" height="330" as="geometry" />
        </mxCell>
        <mxCell id="0mGGz-Txc2dblMr2IItd-1" value="" style="shape=umlActor;verticalLabelPosition=bottom;verticalAlign=top;html=1;outlineConnect=0;" parent="1" vertex="1">
          <mxGeometry x="170" y="330" width="30" height="60" as="geometry" />
        </mxCell>
        <mxCell id="0mGGz-Txc2dblMr2IItd-4" value="&lt;font style=&quot;font-size: 14px;&quot;&gt;Firewall&lt;/font&gt;" style="endArrow=none;dashed=1;html=1;rounded=0;strokeWidth=3;fillColor=#f8cecc;strokeColor=#b85450;" parent="1" edge="1">
          <mxGeometry x="-1" y="-15" width="50" height="50" relative="1" as="geometry">
            <mxPoint x="230" y="500" as="sourcePoint" />
            <mxPoint x="230" y="240" as="targetPoint" />
            <mxPoint x="-15" y="15" as="offset" />
          </mxGeometry>
        </mxCell>
        <mxCell id="0mGGz-Txc2dblMr2IItd-2" value="" style="rounded=1;whiteSpace=wrap;html=1;" parent="1" vertex="1">
          <mxGeometry x="290" y="230" width="210" height="260" as="geometry" />
        </mxCell>
        <mxCell id="0mGGz-Txc2dblMr2IItd-3" value="&lt;font style=&quot;font-size: 14px;&quot;&gt;boigs&#39; machine&lt;/font&gt;" style="text;html=1;strokeColor=none;fillColor=none;align=center;verticalAlign=middle;whiteSpace=wrap;rounded=0;" parent="1" vertex="1">
          <mxGeometry x="342.5" y="460" width="105" height="30" as="geometry" />
        </mxCell>
        <mxCell id="0mGGz-Txc2dblMr2IItd-18" value="" style="rounded=1;whiteSpace=wrap;html=1;" parent="1" vertex="1">
          <mxGeometry x="310" y="260" width="170" height="200" as="geometry" />
        </mxCell>
        <mxCell id="0mGGz-Txc2dblMr2IItd-16" style="edgeStyle=orthogonalEdgeStyle;rounded=0;orthogonalLoop=1;jettySize=auto;html=1;dashed=1;" parent="1" source="0mGGz-Txc2dblMr2IItd-10" target="0mGGz-Txc2dblMr2IItd-11" edge="1">
          <mxGeometry relative="1" as="geometry" />
        </mxCell>
        <mxCell id="0mGGz-Txc2dblMr2IItd-17" style="edgeStyle=orthogonalEdgeStyle;rounded=0;orthogonalLoop=1;jettySize=auto;html=1;exitX=1;exitY=0.5;exitDx=0;exitDy=0;dashed=1;" parent="1" source="0mGGz-Txc2dblMr2IItd-10" target="0mGGz-Txc2dblMr2IItd-12" edge="1">
          <mxGeometry relative="1" as="geometry" />
        </mxCell>
        <mxCell id="0mGGz-Txc2dblMr2IItd-10" value="ingress" style="rounded=1;whiteSpace=wrap;html=1;fontSize=14;" parent="1" vertex="1">
          <mxGeometry x="270" y="325" width="80" height="70" as="geometry" />
        </mxCell>
        <mxCell id="0mGGz-Txc2dblMr2IItd-11" value="service 1" style="rounded=1;whiteSpace=wrap;html=1;fontSize=14;" parent="1" vertex="1">
          <mxGeometry x="400" y="307.5" width="70" height="45" as="geometry" />
        </mxCell>
        <mxCell id="0mGGz-Txc2dblMr2IItd-12" value="service 2" style="rounded=1;whiteSpace=wrap;html=1;fontSize=14;" parent="1" vertex="1">
          <mxGeometry x="400" y="367.5" width="70" height="45" as="geometry" />
        </mxCell>
        <mxCell id="0mGGz-Txc2dblMr2IItd-19" value="kubernetes" style="text;html=1;strokeColor=none;fillColor=none;align=center;verticalAlign=middle;whiteSpace=wrap;rounded=0;fontSize=14;" parent="1" vertex="1">
          <mxGeometry x="400" y="420" width="60" height="30" as="geometry" />
        </mxCell>
        <mxCell id="0mGGz-Txc2dblMr2IItd-9" style="edgeStyle=orthogonalEdgeStyle;rounded=0;orthogonalLoop=1;jettySize=auto;html=1;entryX=0;entryY=0.5;entryDx=0;entryDy=0;" parent="1" source="0mGGz-Txc2dblMr2IItd-1" target="0mGGz-Txc2dblMr2IItd-10" edge="1">
          <mxGeometry relative="1" as="geometry">
            <mxPoint x="250" y="360" as="targetPoint" />
          </mxGeometry>
        </mxCell>
      </root>
    </mxGraphModel>
  </diagram>
</mxfile>
